<svg width="720" height="220" viewBox="0 0 720 220" fill="none" xmlns="http://www.w3.org/2000/svg">
  <rect width="720" height="220" fill="white"/>
  <path d="M245 36C201.7 36 166.01 66.88 160.53 106.72H329.47C323.99 66.88 288.3 36 245 36Z" fill="#B8D3F2"/>
  <path d="M245 184C280.31 184 310.25 163.49 322.79 134H167.21C179.75 163.49 209.69 184 245 184Z" fill="#B8D3F2"/>
  <path d="M290.5 79.5C321.2 74.3 352.3 77.4 375.5 85.1C390.3 90 408.6 93.4 434.2 90.7C406 99.3 384.3 97.1 365.4 92.7C342.8 87.4 319.4 85 290.5 89.7V79.5Z" fill="white"/>
  <path d="M274 91.5C310.2 88.2 340.4 94.2 365.9 99.8C390.2 105.2 412.7 109.4 438.5 104.2C412.4 115.4 387 112.5 364.4 107C340.5 101.2 314.4 96.4 274 101.8V91.5Z" fill="white"/>
  <path d="M303.7 65.4C336.9 59.9 370.1 63.9 399.4 72.3C416.6 77.2 434.3 80.2 453.4 77.7C428.5 86.3 404.2 83.4 381.5 77.6C357 71.3 331.7 68.1 303.7 74.6V65.4Z" fill="white"/>
  <path d="M493.9 70.7L541.3 24L556.7 39.7L509.5 86.2L493.9 70.7Z" fill="#142A45"/>
  <path d="M551.1 84.8L598.1 37.8L613.6 53.4L566.7 100.3L551.1 84.8Z" fill="#142A45"/>
  <path d="M523.6 98.1H548.9L596.9 146.1L581.3 161.7L533.2 113.6H523.6V98.1Z" fill="#142A45"/>
  <path d="M509.7 94.5L497.2 82H474V106.6H496.8L509.7 94.5Z" fill="#142A45"/>
  <path d="M497.2 106.6H474L450.7 83.3L466.3 67.7L489.6 91H497.2V106.6Z" fill="#142A45"/>
  <path d="M505 110.4L478.5 186H546.6L527.7 110.4H505Z" fill="#142A45"/>
  <path d="M453.1 145.9L406 193H390.4L438 145.9H453.1Z" fill="#142A45"/>
  <path d="M118.2 181V175.6L132.2 172.8V97.7L117.3 95.1V89.7H159.9L189 154.8L217.8 89.7H260.2V95.1L245.3 97.7V172.8L259.7 175.6V181H204.7V175.6L219.8 172.8V102.6L185 181H176.6L141.5 103.7V172.8L156.2 175.6V181H118.2Z" fill="#142A45"/>
  <path d="M281.1 181V175.6L294.2 172.8V117L279.8 113.8V108.9L328 101.4V172.8L341.4 175.6V181H281.1ZM311.4 92.2C302.7 92.2 296.7 86.5 296.7 78.5C296.7 70.6 302.7 64.8 311.4 64.8C320.2 64.8 326.3 70.6 326.3 78.5C326.3 86.5 320.2 92.2 311.4 92.2Z" fill="#142A45"/>
  <path d="M381.2 183.4C362.8 183.4 347.6 176.6 338.6 165.7L352.7 149.9H358.1L364.3 165.8C369.1 171.8 375.8 175.7 384.2 175.7C392.5 175.7 398.1 171.4 398.1 164.7C398.1 157.6 392.8 153.6 381.8 149.4L370.8 145.2C354.8 139 342.6 131.5 342.6 115.7C342.6 98.7 357.4 87.8 381.4 87.8C397.5 87.8 410.2 92.9 418.9 101.1L406.1 118H401L394.8 103.9C390.5 99.7 385.5 97.2 378.5 97.2C370.4 97.2 365.4 101.3 365.4 107.4C365.4 113.7 369.8 117.1 382.7 122L393.1 126C412.5 133.4 422.3 141.5 422.3 156.6C422.3 173.8 407.7 183.4 381.2 183.4Z" fill="#142A45"/>
  <path d="M470.3 181.6C450.9 181.6 439.8 171.1 439.8 151.8V110.8H425.1V104.5L441.5 101.6L449.9 72.7H463V102.5H489.4V110.8H463V152.8C463 165.5 468.1 171.2 477.5 171.2C482.2 171.2 486 169.9 489.9 167.5L493.1 172.8C487.4 178.1 479.9 181.6 470.3 181.6Z" fill="#142A45"/>
  <path d="M505.3 181V175.6L518.5 172.8V117L504 113.8V108.9L549.9 101.4L552.2 121.4C560.9 107.7 571.8 100.4 583.5 100.4C590.6 100.4 596.4 103.4 599.6 108.3C599.2 120.7 595.3 129.4 588.8 136.1H579.5L574.4 124.2C573.3 123.4 571.9 123 569.8 123C562.2 123 556.2 129.4 552.8 142.1V172.8L570.2 175.6V181H505.3Z" fill="#142A45"/>
  <path d="M628.9 183.4C615.5 183.4 606.9 174.9 606.9 162C606.9 144.2 624.1 134.8 661.4 131.5V121.8C661.4 109.4 656.8 104.1 646.4 104.1C641.6 104.1 637.4 105.2 633.3 107.6L627.8 122.6H618.7L608.8 112.7C617.2 103.2 631.4 97.8 649.9 97.8C674.6 97.8 685.6 108.8 685.6 132.1V167.1L698.2 169.3V174.5L664.8 183.1L662.4 168.7C651.3 178.5 641.5 183.4 628.9 183.4ZM640.9 168.8C647.2 168.8 652.7 166.1 661.4 159.1V138.6C639.5 141.2 630.6 147.5 630.6 157.9C630.6 165.1 634.3 168.8 640.9 168.8Z" fill="#142A45"/>
  <path d="M706.7 181V175.6L719.9 172.8V72.4L705.3 69.6V64.3L753.7 56.9V172.8L767 175.6V181H706.7Z" fill="#142A45"/>
</svg>
